<?xml version="1.0" encoding="UTF-8"?>
<svg xmlns="http://www.w3.org/2000/svg" xmlns:xlink="http://www.w3.org/1999/xlink" width="3304.93" height="2490.31" viewBox="0 0 3304.93 2490.31">
<defs>
<clipPath id="clip-0">
<path clip-rule="nonzero" d="M 0 0 L 3304.929688 0 L 3304.929688 2490.308594 L 0 2490.308594 Z M 0 0 "/>
</clipPath>
<clipPath id="clip-1">
<path clip-rule="evenodd" d="M 349.171875 1787.410156 C 286.648438 1787.410156 208.78125 1801.71875 208.78125 1741.941406 C 208.78125 1682.140625 286.648438 1696.449219 349.171875 1696.449219 C 409.042969 1696.449219 409.054688 1787.410156 349.171875 1787.410156 Z M 552.871094 1604.441406 L 254.25 1604.441406 C 194.390625 1604.441406 194.375 1513.488281 254.25 1513.488281 L 552.871094 1513.488281 C 612.742188 1513.488281 612.742188 1604.441406 552.871094 1604.441406 Z M 910.210938 1604.441406 L 744.492188 1604.441406 C 684.617188 1604.441406 684.617188 1513.488281 744.492188 1513.488281 L 910.210938 1513.488281 C 970.097656 1513.488281 970.085938 1604.441406 910.210938 1604.441406 Z M 362.972656 1421.449219 L 254.234375 1421.449219 C 194.363281 1421.449219 194.363281 1330.5 254.234375 1330.5 L 362.972656 1330.5 C 422.847656 1330.5 422.859375 1421.449219 362.972656 1421.449219 Z M 910.210938 1421.449219 L 554.605469 1421.449219 C 494.722656 1421.449219 494.734375 1330.5 554.605469 1330.5 L 910.210938 1330.5 C 970.097656 1330.5 970.085938 1421.449219 910.210938 1421.449219 Z M 2489.648438 648.121094 C 2427.140625 648.121094 2349.261719 662.441406 2349.261719 602.640625 C 2349.261719 542.859375 2427.140625 557.179688 2489.648438 557.179688 C 2549.539062 557.179688 2549.511719 648.121094 2489.648438 648.121094 Z M 3050.679688 648.121094 L 2681.28125 648.121094 C 2621.398438 648.121094 2621.429688 557.179688 2681.28125 557.179688 L 3050.679688 557.179688 C 3110.539062 557.179688 3110.570312 648.121094 3050.679688 648.121094 Z M 2693.371094 465.171875 L 2394.730469 465.171875 C 2334.871094 465.171875 2334.871094 374.210938 2394.730469 374.210938 L 2693.371094 374.210938 C 2753.230469 374.210938 2753.230469 465.171875 2693.371094 465.171875 Z M 3050.679688 465.171875 L 2884.949219 465.171875 C 2825.089844 465.171875 2825.089844 374.210938 2884.949219 374.210938 L 3050.679688 374.210938 C 3110.570312 374.210938 3110.539062 465.171875 3050.679688 465.171875 Z M 2503.488281 282.171875 L 2394.730469 282.171875 C 2334.871094 282.171875 2334.871094 191.210938 2394.730469 191.210938 L 2503.488281 191.210938 C 2563.378906 191.210938 2563.351562 282.171875 2503.488281 282.171875 Z M 3050.679688 282.171875 L 2695.050781 282.171875 C 2635.191406 282.171875 2635.191406 191.210938 2695.050781 191.210938 L 3050.679688 191.210938 C 3110.539062 191.210938 3110.570312 282.171875 3050.679688 282.171875 Z M 1134.808594 229.578125 C 1166.648438 275.460938 1188.648438 331.058594 1210.039062 385.101562 C 1296.621094 603.839844 1165.03125 935.738281 984.925781 1139.308594 L 499.816406 1139.308594 C 540.804688 737.230469 789.757812 398.96875 1134.808594 229.578125 Z M 2267.710938 90.96875 L 3177.78125 90.980469 C 3197.738281 90.980469 3214.050781 107.230469 3214.050781 127.199219 L 3214.050781 712.121094 C 3214.050781 731.75 3197.449219 748.351562 3177.78125 748.351562 L 2762.308594 748.351562 C 2754.28125 748.351562 2746.371094 750.488281 2739.460938 754.519531 L 2423.308594 938.179688 L 2394.101562 785.328125 L 2369.730469 753.148438 C 2343.121094 730.890625 2232.148438 776.429688 2231.488281 713.210938 L 2231.460938 201.28125 C 2231.460938 152.511719 2220.21875 90.96875 2267.710938 90.96875 Z M 2692.839844 1698.238281 C 2466.21875 1748.378906 2236.980469 1613.980469 2170.191406 1392.511719 C 2165.769531 1377.828125 2154.191406 1366.351562 2139.480469 1362.019531 C 1951.5 1306.808594 1820.199219 1131.289062 1820.199219 935.179688 C 1820.199219 700.511719 1964.851562 665 1915.910156 603.078125 C 1770.980469 419.789062 1735.421875 247.980469 1816 127.019531 C 1928.78125 144.808594 2038.230469 179.140625 2140.511719 229.308594 L 2140.511719 712.121094 C 2140.511719 771.351562 2181.140625 821.210938 2235.960938 835.320312 L 2311.78125 839.328125 L 2345.980469 1018.289062 L 2358.929688 1042.328125 C 2358.960938 1042.328125 2381.441406 1061.789062 2407.96875 1051.78125 L 2715.589844 873.570312 C 2811.300781 1142.460938 2802.050781 1438.160156 2692.839844 1698.238281 Z M 127.191406 1230.28125 C 107.214844 1230.28125 90.945312 1246.53125 90.945312 1266.519531 L 90.945312 1851.421875 C 90.945312 1930.078125 238.265625 1844.539062 253.566406 1924.589844 L 282.800781 2077.480469 L 598.96875 1893.839844 C 632.167969 1874.511719 1022.628906 1898.511719 1051.230469 1884.75 C 1064.671875 1878.308594 1073.5 1866.519531 1073.5 1851.390625 L 1073.449219 1264.679688 C 1072.769531 1225.109375 1027.460938 1230.140625 1005.121094 1230.28125 L 127.191406 1230.269531 Z M 1164.449219 1587.449219 L 1164.449219 1851.441406 C 1164.449219 1921.570312 1107.398438 1978.648438 1037.261719 1978.648438 L 750.359375 1978.648438 C 885.667969 2144.75 1063.519531 2268.089844 1262.191406 2337.25 C 1285.390625 2341.160156 1404.75 2385.941406 1493.371094 2391.558594 C 1529.378906 2393.851562 1664.160156 2407.691406 1696.410156 2399.210938 C 1803.789062 2393.738281 1907.320312 2373.421875 2004.949219 2340.191406 C 2052.199219 2198.460938 2058.429688 2063.800781 1980.390625 1928.640625 C 1881.71875 1757.679688 1681.308594 1672.550781 1490.46875 1718.570312 C 1475.570312 1722.140625 1459.828125 1718.019531 1448.628906 1707.511719 C 1370.949219 1634.550781 1270.761719 1592.339844 1164.449219 1587.449219 Z M 1149.980469 1207.679688 C 1137.210938 1183.558594 1117.558594 1164.148438 1092.640625 1152.019531 C 1268.210938 928.359375 1390.671875 594.378906 1294.609375 351.628906 C 1274.199219 300.078125 1251.738281 243.398438 1219.128906 192.261719 C 1374.78125 130.921875 1545.261719 103.589844 1718.109375 115.839844 C 1669.78125 215.351562 1643.589844 389.621094 1823.328125 631.800781 C 1622.488281 922.851562 1758.03125 1327.269531 2090.660156 1441.890625 C 2171.5 1671.03125 2401.21875 1819.691406 2645.410156 1797.46875 C 2527.191406 2016.96875 2339.359375 2193.660156 2111.640625 2297.769531 C 2214.160156 1872.140625 1857.871094 1554.25 1492.839844 1624.980469 C 1401.011719 1546.191406 1285.609375 1501.121094 1164.449219 1496.46875 L 1164.449219 1266.539062 C 1164.449219 1245.308594 1159.210938 1225.28125 1149.980469 1207.679688 Z M 250.175781 2194.519531 C 287.160156 2194.519531 616.945312 1978.621094 635.804688 1978.621094 C 816.105469 2228.511719 1081.25 2399.757812 1376.75 2463.738281 C 2354.539062 2660 3118.179688 1733.910156 2799.980469 839.328125 L 3177.75 839.328125 C 3247.878906 839.328125 3304.929688 782.261719 3304.929688 712.121094 L 3304.929688 127.199219 C 3304.929688 57.058594 3247.878906 0 3177.75 0 L 2267.710938 0 C 2197.371094 0 2140.53125 56.550781 2140.53125 128.898438 C 2051.070312 84.148438 1902.78125 46.359375 1801.628906 32.910156 C 1112.171875 -58.699219 474.652344 436.601562 408.359375 1139.351562 L 127.191406 1139.351562 C 57.0625 1139.351562 0 1196.410156 0 1266.519531 L 0 1851.421875 C 0 1921.570312 57.0625 1978.621094 127.191406 1978.621094 L 171.300781 1978.621094 L 205.511719 2157.589844 C 209.625 2179.160156 228.480469 2194.519531 250.175781 2194.519531 Z M 910.210938 1787.410156 L 540.804688 1787.410156 C 480.917969 1787.410156 480.917969 1696.449219 540.804688 1696.449219 L 910.210938 1696.449219 C 970.097656 1696.449219 970.085938 1787.410156 910.210938 1787.410156 "/>
</clipPath>
<linearGradient id="linear-pattern-0" gradientUnits="userSpaceOnUse" x1="0" y1="0" x2="1" y2="0" gradientTransform="matrix(3304.93, 0, 0, 3304.93, 0, 1245.15)">
<stop offset="0" stop-color="rgb(255, 255, 255)" stop-opacity="1"/>
<stop offset="0.0078125" stop-color="rgb(255, 255, 255)" stop-opacity="1"/>
<stop offset="0.015625" stop-color="rgb(255, 255, 255)" stop-opacity="1"/>
<stop offset="0.0234375" stop-color="rgb(255, 255, 255)" stop-opacity="1"/>
<stop offset="0.03125" stop-color="rgb(255, 255, 255)" stop-opacity="1"/>
<stop offset="0.0390625" stop-color="rgb(255, 255, 255)" stop-opacity="1"/>
<stop offset="0.046875" stop-color="rgb(255, 255, 255)" stop-opacity="1"/>
<stop offset="0.0546875" stop-color="rgb(255, 255, 255)" stop-opacity="1"/>
<stop offset="0.0625" stop-color="rgb(255, 255, 255)" stop-opacity="1"/>
<stop offset="0.0703125" stop-color="rgb(255, 255, 255)" stop-opacity="1"/>
<stop offset="0.078125" stop-color="rgb(255, 255, 255)" stop-opacity="1"/>
<stop offset="0.0859375" stop-color="rgb(255, 255, 255)" stop-opacity="1"/>
<stop offset="0.09375" stop-color="rgb(255, 255, 255)" stop-opacity="1"/>
<stop offset="0.101562" stop-color="rgb(255, 255, 255)" stop-opacity="1"/>
<stop offset="0.109375" stop-color="rgb(255, 255, 255)" stop-opacity="1"/>
<stop offset="0.117188" stop-color="rgb(255, 255, 255)" stop-opacity="1"/>
<stop offset="0.125" stop-color="rgb(255, 255, 255)" stop-opacity="1"/>
<stop offset="0.132812" stop-color="rgb(255, 255, 255)" stop-opacity="1"/>
<stop offset="0.140625" stop-color="rgb(255, 255, 255)" stop-opacity="1"/>
<stop offset="0.148438" stop-color="rgb(255, 255, 255)" stop-opacity="1"/>
<stop offset="0.15625" stop-color="rgb(255, 255, 255)" stop-opacity="1"/>
<stop offset="0.164062" stop-color="rgb(255, 255, 255)" stop-opacity="1"/>
<stop offset="0.171875" stop-color="rgb(255, 255, 255)" stop-opacity="1"/>
<stop offset="0.179688" stop-color="rgb(255, 255, 255)" stop-opacity="1"/>
<stop offset="0.1875" stop-color="rgb(255, 255, 255)" stop-opacity="1"/>
<stop offset="0.195312" stop-color="rgb(255, 255, 255)" stop-opacity="1"/>
<stop offset="0.203125" stop-color="rgb(255, 255, 255)" stop-opacity="1"/>
<stop offset="0.210938" stop-color="rgb(255, 255, 255)" stop-opacity="1"/>
<stop offset="0.21875" stop-color="rgb(255, 255, 255)" stop-opacity="1"/>
<stop offset="0.226562" stop-color="rgb(255, 255, 255)" stop-opacity="1"/>
<stop offset="0.234375" stop-color="rgb(255, 255, 255)" stop-opacity="1"/>
<stop offset="0.242188" stop-color="rgb(255, 255, 255)" stop-opacity="1"/>
<stop offset="0.25" stop-color="rgb(255, 255, 255)" stop-opacity="1"/>
<stop offset="0.257812" stop-color="rgb(255, 255, 255)" stop-opacity="1"/>
<stop offset="0.265625" stop-color="rgb(255, 255, 255)" stop-opacity="1"/>
<stop offset="0.273438" stop-color="rgb(255, 255, 255)" stop-opacity="1"/>
<stop offset="0.28125" stop-color="rgb(255, 255, 255)" stop-opacity="1"/>
<stop offset="0.289062" stop-color="rgb(255, 255, 255)" stop-opacity="1"/>
<stop offset="0.296875" stop-color="rgb(255, 255, 255)" stop-opacity="1"/>
<stop offset="0.304688" stop-color="rgb(255, 255, 255)" stop-opacity="1"/>
<stop offset="0.3125" stop-color="rgb(255, 255, 255)" stop-opacity="1"/>
<stop offset="0.320312" stop-color="rgb(255, 255, 255)" stop-opacity="1"/>
<stop offset="0.328125" stop-color="rgb(255, 255, 255)" stop-opacity="1"/>
<stop offset="0.335938" stop-color="rgb(255, 255, 255)" stop-opacity="1"/>
<stop offset="0.34375" stop-color="rgb(255, 255, 255)" stop-opacity="1"/>
<stop offset="0.351562" stop-color="rgb(255, 255, 255)" stop-opacity="1"/>
<stop offset="0.359375" stop-color="rgb(255, 255, 255)" stop-opacity="1"/>
<stop offset="0.367188" stop-color="rgb(255, 255, 255)" stop-opacity="1"/>
<stop offset="0.375" stop-color="rgb(255, 255, 255)" stop-opacity="1"/>
<stop offset="0.382812" stop-color="rgb(255, 255, 255)" stop-opacity="1"/>
<stop offset="0.390625" stop-color="rgb(255, 255, 255)" stop-opacity="1"/>
<stop offset="0.398438" stop-color="rgb(255, 255, 255)" stop-opacity="1"/>
<stop offset="0.40625" stop-color="rgb(255, 255, 255)" stop-opacity="1"/>
<stop offset="0.414062" stop-color="rgb(255, 255, 255)" stop-opacity="1"/>
<stop offset="0.421875" stop-color="rgb(255, 255, 255)" stop-opacity="1"/>
<stop offset="0.429688" stop-color="rgb(255, 255, 255)" stop-opacity="1"/>
<stop offset="0.4375" stop-color="rgb(255, 255, 255)" stop-opacity="1"/>
<stop offset="0.445312" stop-color="rgb(255, 255, 255)" stop-opacity="1"/>
<stop offset="0.453125" stop-color="rgb(255, 255, 255)" stop-opacity="1"/>
<stop offset="0.460938" stop-color="rgb(255, 255, 255)" stop-opacity="1"/>
<stop offset="0.46875" stop-color="rgb(255, 255, 255)" stop-opacity="1"/>
<stop offset="0.476562" stop-color="rgb(255, 255, 255)" stop-opacity="1"/>
<stop offset="0.484375" stop-color="rgb(255, 255, 255)" stop-opacity="1"/>
<stop offset="0.492188" stop-color="rgb(255, 255, 255)" stop-opacity="1"/>
<stop offset="0.5" stop-color="rgb(255, 255, 255)" stop-opacity="1"/>
<stop offset="0.507812" stop-color="rgb(255, 255, 255)" stop-opacity="1"/>
<stop offset="0.515625" stop-color="rgb(255, 255, 255)" stop-opacity="1"/>
<stop offset="0.523438" stop-color="rgb(255, 255, 255)" stop-opacity="1"/>
<stop offset="0.53125" stop-color="rgb(255, 255, 255)" stop-opacity="1"/>
<stop offset="0.539062" stop-color="rgb(255, 255, 255)" stop-opacity="1"/>
<stop offset="0.546875" stop-color="rgb(255, 255, 255)" stop-opacity="1"/>
<stop offset="0.554688" stop-color="rgb(255, 255, 255)" stop-opacity="1"/>
<stop offset="0.5625" stop-color="rgb(255, 255, 255)" stop-opacity="1"/>
<stop offset="0.570312" stop-color="rgb(255, 255, 255)" stop-opacity="1"/>
<stop offset="0.578125" stop-color="rgb(255, 255, 255)" stop-opacity="1"/>
<stop offset="0.585938" stop-color="rgb(255, 255, 255)" stop-opacity="1"/>
<stop offset="0.59375" stop-color="rgb(255, 255, 255)" stop-opacity="1"/>
<stop offset="0.601562" stop-color="rgb(255, 255, 255)" stop-opacity="1"/>
<stop offset="0.609375" stop-color="rgb(255, 255, 255)" stop-opacity="1"/>
<stop offset="0.617188" stop-color="rgb(255, 255, 255)" stop-opacity="1"/>
<stop offset="0.625" stop-color="rgb(255, 255, 255)" stop-opacity="1"/>
<stop offset="0.632812" stop-color="rgb(255, 255, 255)" stop-opacity="1"/>
<stop offset="0.640625" stop-color="rgb(255, 255, 255)" stop-opacity="1"/>
<stop offset="0.648438" stop-color="rgb(255, 255, 255)" stop-opacity="1"/>
<stop offset="0.65625" stop-color="rgb(255, 255, 255)" stop-opacity="1"/>
<stop offset="0.664062" stop-color="rgb(255, 255, 255)" stop-opacity="1"/>
<stop offset="0.671875" stop-color="rgb(255, 255, 255)" stop-opacity="1"/>
<stop offset="0.679688" stop-color="rgb(255, 255, 255)" stop-opacity="1"/>
<stop offset="0.6875" stop-color="rgb(255, 255, 255)" stop-opacity="1"/>
<stop offset="0.695312" stop-color="rgb(255, 255, 255)" stop-opacity="1"/>
<stop offset="0.703125" stop-color="rgb(255, 255, 255)" stop-opacity="1"/>
<stop offset="0.710938" stop-color="rgb(255, 255, 255)" stop-opacity="1"/>
<stop offset="0.71875" stop-color="rgb(255, 255, 255)" stop-opacity="1"/>
<stop offset="0.726562" stop-color="rgb(255, 255, 255)" stop-opacity="1"/>
<stop offset="0.734375" stop-color="rgb(255, 255, 255)" stop-opacity="1"/>
<stop offset="0.742188" stop-color="rgb(255, 255, 255)" stop-opacity="1"/>
<stop offset="0.75" stop-color="rgb(255, 255, 255)" stop-opacity="1"/>
<stop offset="0.757812" stop-color="rgb(255, 255, 255)" stop-opacity="1"/>
<stop offset="0.765625" stop-color="rgb(255, 255, 255)" stop-opacity="1"/>
<stop offset="0.773438" stop-color="rgb(255, 255, 255)" stop-opacity="1"/>
<stop offset="0.78125" stop-color="rgb(255, 255, 255)" stop-opacity="1"/>
<stop offset="0.789062" stop-color="rgb(255, 255, 255)" stop-opacity="1"/>
<stop offset="0.796875" stop-color="rgb(255, 255, 255)" stop-opacity="1"/>
<stop offset="0.804688" stop-color="rgb(255, 255, 255)" stop-opacity="1"/>
<stop offset="0.8125" stop-color="rgb(255, 255, 255)" stop-opacity="1"/>
<stop offset="0.820312" stop-color="rgb(255, 255, 255)" stop-opacity="1"/>
<stop offset="0.828125" stop-color="rgb(255, 255, 255)" stop-opacity="1"/>
<stop offset="0.835938" stop-color="rgb(255, 255, 255)" stop-opacity="1"/>
<stop offset="0.84375" stop-color="rgb(255, 255, 255)" stop-opacity="1"/>
<stop offset="0.851562" stop-color="rgb(255, 255, 255)" stop-opacity="1"/>
<stop offset="0.859375" stop-color="rgb(255, 255, 255)" stop-opacity="1"/>
<stop offset="0.867188" stop-color="rgb(255, 255, 255)" stop-opacity="1"/>
<stop offset="0.875" stop-color="rgb(255, 255, 255)" stop-opacity="1"/>
<stop offset="0.882812" stop-color="rgb(255, 255, 255)" stop-opacity="1"/>
<stop offset="0.890625" stop-color="rgb(255, 255, 255)" stop-opacity="1"/>
<stop offset="0.898438" stop-color="rgb(255, 255, 255)" stop-opacity="1"/>
<stop offset="0.90625" stop-color="rgb(255, 255, 255)" stop-opacity="1"/>
<stop offset="0.914062" stop-color="rgb(255, 255, 255)" stop-opacity="1"/>
<stop offset="0.921875" stop-color="rgb(255, 255, 255)" stop-opacity="1"/>
<stop offset="0.929688" stop-color="rgb(255, 255, 255)" stop-opacity="1"/>
<stop offset="0.9375" stop-color="rgb(255, 255, 255)" stop-opacity="1"/>
<stop offset="0.945312" stop-color="rgb(255, 255, 255)" stop-opacity="1"/>
<stop offset="0.953125" stop-color="rgb(255, 255, 255)" stop-opacity="1"/>
<stop offset="0.960938" stop-color="rgb(255, 255, 255)" stop-opacity="1"/>
<stop offset="0.96875" stop-color="rgb(255, 255, 255)" stop-opacity="1"/>
<stop offset="0.976562" stop-color="rgb(255, 255, 255)" stop-opacity="1"/>
<stop offset="0.984375" stop-color="rgb(255, 255, 255)" stop-opacity="1"/>
<stop offset="0.992188" stop-color="rgb(255, 255, 255)" stop-opacity="1"/>
<stop offset="1" stop-color="rgb(255, 255, 255)" stop-opacity="1"/>
</linearGradient>
</defs>
<g clip-path="url(#clip-0)">
<g clip-path="url(#clip-1)">
<path fill-rule="nonzero" fill="url(#linear-pattern-0)" d="M 0 0 L 0 2490.308594 L 3304.929688 2490.308594 L 3304.929688 0 Z M 0 0 "/>
</g>
</g>
</svg>
